<svg width="23" height="22" viewBox="0 0 23 22" fill="none" xmlns="http://www.w3.org/2000/svg">
<path d="M22.1119 9.56412C22.9703 9.56412 23.3287 8.45374 22.6314 7.9419L12.0222 0.172011C11.8707 0.060251 11.6878 0 11.4999 0C11.3121 0 11.1292 0.060251 10.9777 0.172011L0.368489 7.9419C-0.328789 8.45094 0.0295727 9.56412 0.890752 9.56412H2.61033V20.0247H0.610174C0.487943 20.0247 0.387935 20.1254 0.387935 20.2484V21.7028C0.387935 21.8259 0.487943 21.9266 0.610174 21.9266H22.3897C22.5119 21.9266 22.6119 21.8259 22.6119 21.7028V20.2484C22.6119 20.1254 22.5119 20.0247 22.3897 20.0247H20.3895V9.56412H22.1119ZM11.4999 2.14385L19.0311 7.65941H3.96878L11.4999 2.14385ZM4.61049 9.56412H7.86075V20.0247H4.61049V9.56412ZM9.86091 9.56412H13.1112V20.0247H9.86091V9.56412ZM18.3894 20.0247H15.1113V9.56412H18.3894V20.0247Z" fill="#0A2C9A"/>
</svg>
