<svg width="24" height="26" viewBox="0 0 24 26" fill="none" xmlns="http://www.w3.org/2000/svg">
<path d="M12.1205 25.1177C5.77906 25.1177 0.620483 19.7247 0.620483 13.095C0.620483 6.46532 5.77906 1.07227 12.1205 1.07227C18.4619 1.07227 23.6205 6.46532 23.6205 13.095C23.6205 19.7247 18.4619 25.1177 12.1205 25.1177ZM12.1205 2.7898C6.68263 2.7898 2.26334 7.40996 2.26334 13.095C2.26334 18.78 6.68263 23.4002 12.1205 23.4002C17.5583 23.4002 21.9776 18.78 21.9776 13.095C21.9776 7.40996 17.5583 2.7898 12.1205 2.7898Z" fill="#0A2C9A" stroke="#0A2C9A" stroke-width="0.3"/>
<path d="M15.4062 17.3886C15.2583 17.3886 15.1105 17.3542 14.979 17.2683L10.8719 14.692C10.7508 14.615 10.6509 14.5065 10.5818 14.377C10.5127 14.2476 10.4768 14.1017 10.4776 13.9535V7.08338C10.4776 6.60247 10.839 6.22461 11.299 6.22461C11.759 6.22461 12.1205 6.60247 12.1205 7.08338V13.4726L15.8333 15.7913C15.9863 15.8893 16.1045 16.0367 16.17 16.2112C16.2356 16.3858 16.2449 16.5779 16.1966 16.7585C16.1483 16.9391 16.045 17.0983 15.9024 17.212C15.7598 17.3257 15.5856 17.3877 15.4062 17.3886Z" fill="#0A2C9A" stroke="#0A2C9A" stroke-width="0.3"/>
</svg>
