<svg width="40" height="40" viewBox="0 0 40 40" fill="none" xmlns="http://www.w3.org/2000/svg">
<circle cx="20" cy="20" r="20" fill="#0062FF"/>
<path d="M22.2 10.875C20.9734 10.875 19.797 11.3623 18.9296 12.2296C18.0623 13.097 17.575 14.2734 17.575 15.5V18.075H15.1C14.976 18.075 14.875 18.175 14.875 18.3V21.7C14.875 21.824 14.975 21.925 15.1 21.925H17.575V28.9C17.575 29.024 17.675 29.125 17.8 29.125H21.2C21.324 29.125 21.425 29.025 21.425 28.9V21.925H23.922C24.025 21.925 24.115 21.855 24.14 21.755L24.99 18.355C24.9984 18.3218 24.9991 18.2872 24.992 18.2537C24.985 18.2202 24.9704 18.1888 24.9494 18.1618C24.9283 18.1348 24.9014 18.1129 24.8707 18.0979C24.84 18.0829 24.8062 18.075 24.772 18.075H21.425V15.5C21.425 15.3982 21.445 15.2974 21.484 15.2034C21.5229 15.1094 21.58 15.024 21.652 14.952C21.724 14.88 21.8094 14.8229 21.9034 14.784C21.9974 14.745 22.0982 14.725 22.2 14.725H24.8C24.924 14.725 25.025 14.625 25.025 14.5V11.1C25.025 10.976 24.925 10.875 24.8 10.875H22.2Z" fill="white"/>
</svg>
