<svg width="20" height="21" viewBox="0 0 20 21" fill="none" xmlns="http://www.w3.org/2000/svg">
<path d="M9.78017 2.07227C13.9441 2.07227 17.332 5.66127 17.332 10.0723C17.332 14.4833 13.9441 18.0723 9.78017 18.0723C5.61628 18.0723 2.22835 14.4833 2.22835 10.0723C2.22835 5.66127 5.61628 2.07227 9.78017 2.07227ZM9.78017 0.0722656C4.56658 0.0722656 0.340393 4.54927 0.340393 10.0723C0.340393 15.5953 4.56658 20.0723 9.78017 20.0723C14.9938 20.0723 19.2199 15.5953 19.2199 10.0723C19.2199 4.54927 14.9938 0.0722656 9.78017 0.0722656ZM13.5561 8.07227C13.5561 7.0114 13.1583 5.99398 12.4501 5.24384C11.742 4.49369 10.7816 4.07227 9.78017 4.07227C8.77874 4.07227 7.81832 4.49369 7.1102 5.24384C6.40208 5.99398 6.00426 7.0114 6.00426 8.07227H7.89221C7.89221 6.96927 8.73896 6.07227 9.78017 6.07227C10.8214 6.07227 11.6681 6.96927 11.6681 8.07227C11.6681 9.17527 10.8214 10.0723 9.78017 10.0723C9.52981 10.0723 9.28971 10.1776 9.11268 10.3652C8.93565 10.5527 8.83619 10.807 8.83619 11.0723V13.0723H10.7241V11.9313C11.5333 11.7117 12.2506 11.2135 12.7632 10.5149C13.2759 9.81636 13.5548 8.95709 13.5561 8.07227ZM10.7241 14.0723H8.83619V16.0723H10.7241V14.0723Z" fill="#0A2C9A"/>
</svg>
