<svg width="26" height="29" viewBox="0 0 26 29" fill="none" xmlns="http://www.w3.org/2000/svg">
<path d="M25.707 18.232L23 15.534V11.96C22.9969 9.49006 22.075 7.10905 20.4126 5.27731C18.7502 3.44558 16.4654 2.29325 14 2.04316V0H12V2.04316C9.53457 2.29325 7.24976 3.44558 5.58737 5.27731C3.92498 7.10905 3.0031 9.49006 3 11.96V15.534L0.293 18.232C0.105451 18.4188 5.66374e-05 18.6723 0 18.9366V21.9266C0 22.1909 0.105357 22.4444 0.292893 22.6313C0.48043 22.8182 0.734784 22.9232 1 22.9232H8V23.6977C7.9778 24.9622 8.4248 26.1903 9.25526 27.1466C10.0857 28.1029 11.2412 28.7199 12.5 28.8793C13.1952 28.948 13.8971 28.8709 14.5606 28.6531C15.2241 28.4352 15.8345 28.0813 16.3525 27.6142C16.8706 27.1471 17.2848 26.577 17.5685 25.9408C17.8522 25.3046 17.9992 24.6162 18 23.9199V22.9232H25C25.2652 22.9232 25.5196 22.8182 25.7071 22.6313C25.8946 22.4444 26 22.1909 26 21.9266V18.9366C25.9999 18.6723 25.8946 18.4188 25.707 18.232ZM16 23.9199C16 24.7129 15.6839 25.4734 15.1213 26.0342C14.5587 26.5949 13.7956 26.9099 13 26.9099C12.2044 26.9099 11.4413 26.5949 10.8787 26.0342C10.3161 25.4734 10 24.7129 10 23.9199V22.9232H16V23.9199ZM24 20.9299H2V19.3492L4.707 16.6512C4.89455 16.4644 4.99994 16.2109 5 15.9466V11.96C5 9.8453 5.84285 7.81726 7.34315 6.32198C8.84344 4.82669 10.8783 3.98665 13 3.98665C15.1217 3.98665 17.1566 4.82669 18.6569 6.32198C20.1571 7.81726 21 9.8453 21 11.96V15.9466C21.0001 16.2109 21.1054 16.4644 21.293 16.6512L24 19.3492V20.9299Z" fill="#0A2C9A"/>
</svg>
