<svg width="40" height="40" viewBox="0 0 40 40" fill="none" xmlns="http://www.w3.org/2000/svg">
<circle cx="20" cy="20" r="20" fill="#0062FF"/>
<path fill-rule="evenodd" clip-rule="evenodd" d="M15.2146 12C14.3622 12 13.5448 12.3385 12.942 12.9411C12.3391 13.5437 12.0003 14.361 12 15.2133V23.7854C12 24.638 12.3387 25.4556 12.9415 26.0585C13.5444 26.6613 14.362 27 15.2146 27H23.7867C24.639 26.9997 25.4563 26.6609 26.0589 26.058C26.6615 25.4552 27 24.6378 27 23.7854V15.2133C26.9997 14.3612 26.661 13.5441 26.0585 12.9415C25.4559 12.339 24.6388 12.0003 23.7867 12H15.2146ZM24.7113 15.2183C24.7113 15.4638 24.6138 15.6993 24.4401 15.8729C24.2665 16.0466 24.031 16.1441 23.7854 16.1441C23.5399 16.1441 23.3044 16.0466 23.1308 15.8729C22.9571 15.6993 22.8596 15.4638 22.8596 15.2183C22.8596 14.9727 22.9571 14.7372 23.1308 14.5636C23.3044 14.3899 23.5399 14.2924 23.7854 14.2924C24.031 14.2924 24.2665 14.3899 24.4401 14.5636C24.6138 14.7372 24.7113 14.9727 24.7113 15.2183ZM19.5019 16.9317C18.8209 16.9317 18.1678 17.2022 17.6862 17.6838C17.2047 18.1653 16.9342 18.8184 16.9342 19.4994C16.9342 20.1804 17.2047 20.8335 17.6862 21.315C18.1678 21.7965 18.8209 22.0671 19.5019 22.0671C20.1828 22.0671 20.8359 21.7965 21.3175 21.315C21.799 20.8335 22.0695 20.1804 22.0695 19.4994C22.0695 18.8184 21.799 18.1653 21.3175 17.6838C20.8359 17.2022 20.1828 16.9317 19.5019 16.9317ZM15.6985 19.4994C15.6985 18.491 16.099 17.5239 16.8121 16.8109C17.5251 16.0978 18.4922 15.6972 19.5006 15.6972C20.509 15.6972 21.4761 16.0978 22.1891 16.8109C22.9022 17.5239 23.3028 18.491 23.3028 19.4994C23.3028 20.5078 22.9022 21.4749 22.1891 22.1879C21.4761 22.901 20.509 23.3015 19.5006 23.3015C18.4922 23.3015 17.5251 22.901 16.8121 22.1879C16.099 21.4749 15.6985 20.5078 15.6985 19.4994Z" fill="white"/>
</svg>
