<svg width="30" height="23" viewBox="0 0 30 23" fill="none" xmlns="http://www.w3.org/2000/svg">
<path d="M6.47438 0.408704C6.3492 0.280897 6.20008 0.179026 6.03555 0.10891C5.87101 0.0387933 5.69428 0.001807 5.51545 6.45749e-05C5.33663 -0.00167785 5.15921 0.0318573 4.99334 0.0987542C4.82747 0.165651 4.6764 0.264599 4.54876 0.389942C3.10533 1.82668 1.96028 3.53503 1.1796 5.41657C0.39891 7.29811 -0.001986 9.31564 7.7501e-06 11.3529C-0.00211092 13.4684 0.430183 15.5618 1.27007 17.5031C2.10996 19.4445 3.33953 21.1925 4.88251 22.6386C5.14223 22.8788 5.4853 23.0083 5.83889 22.9996C6.19247 22.9908 6.52873 22.8445 6.77625 22.5917C7.36875 21.9988 7.29563 21.055 6.72563 20.509C5.48719 19.328 4.50167 17.9073 3.82898 16.3333C3.15628 14.7593 2.81045 13.0648 2.81251 11.3529C2.81251 7.88934 4.20188 4.74849 6.45563 2.46321C6.99938 1.90971 7.05563 0.990344 6.47438 0.408704ZM9.77625 3.71655C9.52932 3.46229 9.19172 3.31636 8.83745 3.31073C8.48318 3.3051 8.14113 3.44024 7.88625 3.68653C6.87153 4.68817 6.06613 5.88186 5.51696 7.19804C4.96779 8.51423 4.68583 9.92661 4.68751 11.3529C4.68751 14.5275 6.05626 17.3813 8.23688 19.3552C8.49445 19.5824 8.82955 19.7018 9.1727 19.6885C9.51585 19.6752 9.84073 19.5303 10.08 19.2839C10.695 18.6684 10.5806 17.7003 10.0031 17.1562C9.21179 16.4113 8.5814 15.5121 8.15088 14.514C7.72036 13.5159 7.49884 12.44 7.5 11.3529C7.5 9.19522 8.35688 7.2364 9.75 5.79919C10.2863 5.24757 10.3744 4.3132 9.77625 3.71655ZM20.2237 3.71467C20.4707 3.46041 20.8083 3.31448 21.1625 3.30885C21.5168 3.30323 21.8589 3.43836 22.1137 3.68465C23.1287 4.68652 23.9342 5.88051 24.4834 7.19703C25.0326 8.51356 25.3144 9.9263 25.3125 11.3529C25.3125 14.5275 23.9437 17.3813 21.7631 19.3552C21.5056 19.5824 21.1705 19.7018 20.8273 19.6885C20.4842 19.6752 20.1593 19.5303 19.92 19.2839C19.305 18.6684 19.4194 17.7003 19.9969 17.1562C20.7882 16.4113 21.4186 15.5121 21.8491 14.514C22.2796 13.5159 22.5012 12.44 22.5 11.3529C22.5 9.19522 21.6431 7.2364 20.25 5.79919C19.7137 5.24757 19.6256 4.31132 20.2237 3.71467ZM23.5256 0.408704C23.6508 0.280897 23.7999 0.179026 23.9645 0.10891C24.129 0.0387933 24.3057 0.001807 24.4845 6.45749e-05C24.6634 -0.00167785 24.8408 0.0318573 25.0067 0.0987542C25.1725 0.165651 25.3236 0.264599 25.4512 0.389942C26.8947 1.82668 28.0397 3.53503 28.8204 5.41657C29.6011 7.29811 30.002 9.31564 30 11.3529C30.0021 13.4684 29.5698 15.5618 28.7299 17.5031C27.89 19.4445 26.6605 21.1925 25.1175 22.6386C24.8578 22.8788 24.5147 23.0083 24.1611 22.9996C23.8075 22.9908 23.4713 22.8445 23.2237 22.5917C22.6312 21.9988 22.7044 21.055 23.2762 20.509C24.5143 19.3278 25.4995 17.9071 26.1719 16.3331C26.8443 14.7591 27.1898 13.0647 27.1875 11.3529C27.1875 7.88934 25.7981 4.74849 23.5444 2.46321C23.0006 1.90971 22.9444 0.990344 23.5256 0.408704ZM15 8.53853C14.2541 8.53853 13.5387 8.83504 13.0113 9.36284C12.4838 9.89064 12.1875 10.6065 12.1875 11.3529C12.1875 12.0993 12.4838 12.8152 13.0113 13.343C13.5387 13.8708 14.2541 14.1673 15 14.1673C15.7459 14.1673 16.4613 13.8708 16.9887 13.343C17.5162 12.8152 17.8125 12.0993 17.8125 11.3529C17.8125 10.6065 17.5162 9.89064 16.9887 9.36284C16.4613 8.83504 15.7459 8.53853 15 8.53853Z" fill="#0A2C9A"/>
</svg>
