<svg width="28" height="25" viewBox="0 0 28 25" fill="none" xmlns="http://www.w3.org/2000/svg">
<path d="M2.19676 9.12226C3.80004 4.45672 8.57096 1.07227 14.2069 1.07227C20.733 1.07227 26.0991 5.61132 26.7306 11.4223L24.2196 10.9542M26.1543 16.0223C25.3459 18.3588 23.7459 20.3988 21.5864 21.8462C19.4269 23.2937 16.8201 24.0734 14.1441 24.0723C7.61803 24.0723 2.252 19.5332 1.62048 13.7223L4.13149 14.1903" stroke="#0A2C9A" stroke-width="1.5" stroke-linecap="round" stroke-linejoin="round"/>
<path d="M10.4115 14.3298V16.6206C10.4087 16.8052 10.4569 16.9874 10.5517 17.1503C10.6466 17.3132 10.785 17.4514 10.9539 17.5521C12.0136 18.1593 12.8183 18.3375 14.1818 18.3755C15.4386 18.4065 16.227 18.226 17.3997 17.5544C17.5715 17.453 17.7123 17.3132 17.809 17.1483C17.9056 16.9833 17.9549 16.7985 17.9521 16.6114V14.3298M20.4669 11.4398V14.9071M7.9608 11.2432C8.41529 10.3646 11.2314 8.83506 13.8014 8.07951C14.0491 8.00743 14.316 8.01309 14.5597 8.09561C16.8322 8.85691 19.3608 10.0104 20.2786 10.9453C20.7569 11.4341 20.2886 12.0574 19.7098 12.4426C18.5334 13.2258 17.2365 13.8341 14.615 14.7576C14.3373 14.855 14.0304 14.8571 13.7512 14.7633C11.0644 13.8491 8.55089 12.6703 7.98214 11.6319C7.94694 11.5727 7.92674 11.507 7.92304 11.4397C7.91935 11.3724 7.93225 11.3053 7.9608 11.2432Z" stroke="#0A2C9A" stroke-width="1.5" stroke-linecap="round" stroke-linejoin="round"/>
</svg>
