<svg width="19" height="21" viewBox="0 0 19 21" fill="none" xmlns="http://www.w3.org/2000/svg">
<path d="M7.62048 19H11.6205C11.6205 20.1 10.7205 21 9.62048 21C8.52048 21 7.62048 20.1 7.62048 19ZM18.6205 17V18H0.620483V17L2.62048 15V9C2.62048 5.9 4.62048 3.2 7.62048 2.3V2C7.62048 0.9 8.52048 0 9.62048 0C10.7205 0 11.6205 0.9 11.6205 2V2.3C14.6205 3.2 16.6205 5.9 16.6205 9V15L18.6205 17ZM14.6205 9C14.6205 6.2 12.4205 4 9.62048 4C6.82048 4 4.62048 6.2 4.62048 9V16H14.6205V9Z" fill="#0A2C9A"/>
</svg>
