<svg width="29" height="19" viewBox="0 0 29 19" fill="none" xmlns="http://www.w3.org/2000/svg">
<path d="M26.1673 0.0722656H2.58562C2.06443 0.0722656 1.56459 0.261908 1.19606 0.599473C0.827524 0.937039 0.620483 1.39488 0.620483 1.87227V16.2723C0.620483 16.7497 0.827524 17.2075 1.19606 17.5451C1.56459 17.8826 2.06443 18.0723 2.58562 18.0723H26.1673C26.6885 18.0723 27.1883 17.8826 27.5568 17.5451C27.9254 17.2075 28.1324 16.7497 28.1324 16.2723V1.87227C28.1324 1.39488 27.9254 0.937039 27.5568 0.599473C27.1883 0.261908 26.6885 0.0722656 26.1673 0.0722656ZM26.1673 1.87227V4.57227H2.58562V1.87227H26.1673ZM2.58562 16.2723V6.37227H26.1673V16.2723H2.58562Z" fill="#0A2C9A"/>
<path d="M4.55072 12.6719H14.3764V14.4719H4.55072V12.6719Z" fill="#0A2C9A"/>
</svg>
