<svg width="20" height="22" viewBox="0 0 20 22" fill="none" xmlns="http://www.w3.org/2000/svg">
<path d="M19.4616 0.74871L0.279125 7.46442C0.200583 7.49184 0.131849 7.54371 0.082054 7.61314C0.0322591 7.68256 0.00376144 7.76625 0.000347213 7.85309C-0.00306701 7.93993 0.018764 8.0258 0.0629396 8.0993C0.107115 8.1728 0.171544 8.23044 0.247665 8.26457L7.29703 11.4371C7.33397 11.4539 7.37442 11.4603 7.41445 11.4558C7.45447 11.4513 7.4927 11.436 7.52541 11.4114L14.4361 6.22625C14.6505 6.0672 14.9138 6.3437 14.7624 6.56882L9.82432 13.8253C9.80126 13.8596 9.78701 13.8996 9.78292 13.9414C9.77884 13.9832 9.78507 14.0254 9.80102 14.0639L12.8212 21.466C12.8536 21.5459 12.9084 21.6137 12.9783 21.6601C13.0482 21.7066 13.13 21.7297 13.2126 21.7262C13.2953 21.7228 13.3751 21.693 13.4413 21.6408C13.5075 21.5886 13.557 21.5166 13.5832 21.4342L19.9789 1.29071C20.003 1.21521 20.0065 1.13416 19.9892 1.05666C19.9718 0.979163 19.9342 0.908284 19.8806 0.851985C19.8269 0.795687 19.7594 0.756199 19.6856 0.737955C19.6118 0.719712 19.5335 0.723436 19.4616 0.74871Z" fill="black"/>
</svg>
