<svg width="40" height="40" viewBox="0 0 40 40" fill="none" xmlns="http://www.w3.org/2000/svg">
<circle cx="20" cy="20" r="20" fill="#0062FF"/>
<path d="M18 22L23.19 19L18 16V22ZM29.56 14.17C29.69 14.64 29.78 15.27 29.84 16.07C29.91 16.87 29.94 17.56 29.94 18.16L30 19C30 21.19 29.84 22.8 29.56 23.83C29.31 24.73 28.73 25.31 27.83 25.56C27.36 25.69 26.5 25.78 25.18 25.84C23.88 25.91 22.69 25.94 21.59 25.94L20 26C15.81 26 13.2 25.84 12.17 25.56C11.27 25.31 10.69 24.73 10.44 23.83C10.31 23.36 10.22 22.73 10.16 21.93C10.09 21.13 10.06 20.44 10.06 19.84L10 19C10 16.81 10.16 15.2 10.44 14.17C10.69 13.27 11.27 12.69 12.17 12.44C12.64 12.31 13.5 12.22 14.82 12.16C16.12 12.09 17.31 12.06 18.41 12.06L20 12C24.19 12 26.8 12.16 27.83 12.44C28.73 12.69 29.31 13.27 29.56 14.17Z" fill="white"/>
</svg>
